M48
INCH
T41C0.020
%
T41
X011980Y036250
X012380Y036250
X012780Y036250
X013430Y036310
X011980Y033000
X011980Y029750
X012380Y029750
X012380Y033000
X016000Y038000
X015200Y038000
X016750Y037850
X014000Y037800
X015600Y038000
X016880Y036610
X014000Y034550
X016000Y034750
X015600Y034750
X015200Y034750
X016750Y034600
X016880Y033360
X016640Y032880
X018000Y032900
X018400Y032900
X018800Y032900
X019200Y032900
X020340Y033420
X026000Y032900
X026400Y032900
X012780Y033000
X012780Y029750
X012780Y026500
X012780Y023250
X013430Y033060
X013430Y029810
X013430Y026560
X011980Y026500
X012380Y026500
X011980Y023250
X012380Y023250
X016640Y036130
X026000Y036150
X026400Y036150
X018000Y036150
X018400Y036150
X018800Y036150
X019200Y036150
X020340Y036670
X029480Y033000
X030280Y033000
X029880Y033000
X030930Y033060
X018550Y039380
X018050Y040450
X017650Y040450
X018450Y040450
X018750Y039780
X019250Y040450
X018850Y040450
X016850Y039380
X016650Y039780
X019650Y040450
X020950Y040350
X021300Y040350
X021650Y040350
X020450Y040450
X020050Y041850
X020950Y043600
X021300Y043600
X021650Y043600
X020450Y043700
X018550Y042630
X018050Y043700
X017650Y043700
X019250Y043700
X018450Y043700
X018850Y043700
X018750Y043030
X016850Y042630
X016650Y043030
X019650Y043700
X025600Y043850
X026000Y043850
X026400Y043850
X026800Y043850
X016000Y031500
X015600Y031500
X016000Y028250
X015200Y028250
X014000Y028050
X015600Y028250
X015200Y031500
X014000Y031300
X016750Y031350
X016880Y030110
X016640Y029630
X016750Y028100
X016880Y026860
X016640Y026380
X018000Y029650
X018400Y029650
X018800Y029650
X019200Y029650
X020340Y030170
X018000Y026400
X018400Y026400
X018800Y026400
X019200Y026400
X020340Y026920
X016000Y025000
X015600Y025000
X015200Y025000
X014000Y024800
X016750Y024850
X016880Y023610
X016640Y023130
X018000Y023150
X018400Y023150
X018800Y023150
X019200Y023150
X026000Y023150
X026400Y023150
X029480Y023250
X030280Y023250
X029880Y023250
X030930Y023310
X026000Y029650
X026400Y029650
X026000Y026400
X026400Y026400
X029480Y029750
X030280Y029750
X029880Y029750
X030930Y029810
X029480Y026500
X030280Y026500
X030930Y026560
X029880Y026500
X013430Y023310
X016000Y021750
X015200Y021750
X014000Y021550
X015600Y021750
X020340Y023670
X020340Y020420
X018400Y019900
X018800Y019900
X019200Y019900
X026000Y019900
X026400Y019900
X026000Y016650
X026400Y016650
X029480Y016750
X030280Y016750
X029880Y016750
X030930Y016810
X029480Y020000
X029880Y020000
X030280Y020000
X030930Y020060
X016750Y021600
X016880Y020360
X016640Y019880
X018000Y019900
X016000Y018500
X015200Y018500
X016750Y018350
X014000Y018300
X015600Y018500
X016880Y017110
X016640Y016630
X018000Y016650
X018400Y016650
X018800Y016650
X019200Y016650
X020340Y017170
X011980Y020000
X012380Y020000
X012780Y020000
X013430Y020060
X011980Y016750
X012780Y016750
X012380Y016750
X013430Y016810
X011980Y010250
X011980Y007000
X012780Y007000
X012380Y007000
X013430Y007060
X012780Y010250
X013430Y010310
X012380Y010250
X011980Y013500
X012780Y013500
X012380Y013500
X013430Y013560
X016000Y015250
X016750Y015100
X015600Y015250
X015200Y015250
X014000Y015050
X014000Y011800
X016880Y013860
X016640Y013380
X018000Y013400
X018400Y013400
X018800Y013400
X026000Y013400
X026400Y013400
X019200Y013400
X020340Y013920
X029480Y013500
X030280Y013500
X030930Y013560
X029880Y013500
X016000Y012000
X015200Y012000
X016750Y011850
X015600Y012000
X016880Y010610
X016640Y010130
X018000Y010150
X016000Y008750
X015200Y008750
X014000Y008550
X015600Y008750
X016750Y008600
X016880Y007360
X016640Y006880
X018000Y006900
X018400Y006900
X018800Y006900
X019200Y006900
X020340Y007420
X018400Y010150
X018800Y010150
X019200Y010150
X020340Y010670
X026000Y010150
X026400Y010150
X026000Y006900
X026400Y006900
X029480Y007000
X030280Y007000
X029880Y007000
X030930Y007060
X029480Y010250
X030280Y010250
X029880Y010250
X030930Y010310
X025600Y040600
X026000Y040600
X026400Y040600
X026800Y040600
X031200Y041100
X031050Y040330
X030950Y040700
X031600Y041100
X030540Y040880
X029480Y036250
X030280Y036250
X030930Y036310
X029880Y036250
X030600Y039400
X030200Y039400
X029800Y039400
X032000Y041100
X033450Y041850
X030600Y042650
X030200Y042650
X029800Y042650
X031200Y044350
X031600Y044350
X032000Y044350
X030540Y044130
X031050Y043580
X030950Y043950
X033450Y045100
X033450Y048350
X030600Y045900
X030200Y045900
X029800Y045900
X032700Y038000
X031500Y037800
X033500Y034750
X032700Y034750
X034250Y034600
X031500Y034550
X033100Y034750
X034380Y033360
X034140Y032880
X035500Y032900
X035900Y032900
X036300Y032900
X036700Y032900
X037840Y033420
X013700Y041100
X013040Y040880
X013550Y040330
X013450Y040700
X014100Y041100
X013100Y039400
X012700Y039400
X012300Y039400
X014500Y041100
X015950Y041850
X033500Y038000
X034250Y037850
X033100Y038000
X034380Y036610
X034140Y036130
X035500Y036150
X035900Y036150
X036300Y036150
X036700Y036150
X037840Y036670
X036050Y039380
X036250Y039780
X034350Y039380
X034150Y039780
X035550Y040450
X035150Y040450
X036750Y040450
X035950Y040450
X036350Y040450
X037150Y040450
X038450Y040350
X038800Y040350
X039150Y040350
X037950Y040450
X037550Y041850
X036050Y042630
X035550Y043700
X036250Y043030
X036750Y043700
X038450Y043600
X038800Y043600
X039150Y043600
X035150Y043700
X037950Y043700
X043500Y036150
X043500Y032900
X043900Y032900
X043500Y029650
X043900Y029650
X043900Y036150
X046980Y033000
X046980Y029750
X047780Y029750
X047380Y029750
X048430Y029810
X047780Y033000
X048430Y033060
X047380Y033000
X033500Y031500
X032700Y031500
X034250Y031350
X031500Y031300
X033100Y031500
X034380Y030110
X035500Y029650
X035900Y029650
X036300Y029650
X036700Y029650
X037840Y030170
X043500Y026400
X043500Y023150
X043500Y019900
X043900Y019900
X043900Y023150
X043500Y016650
X043900Y016650
X043500Y013400
X043900Y013400
X043500Y010150
X043500Y006900
X043900Y006900
X043900Y010150
X043900Y026400
X046980Y026500
X047780Y026500
X047380Y026500
X048430Y026560
X046980Y023250
X047780Y023250
X047380Y023250
X048430Y023310
X048430Y020060
X046980Y020000
X047780Y020000
X047380Y020000
X046980Y016750
X047380Y016750
X047780Y016750
X048430Y016810
X046980Y013500
X047780Y013500
X047380Y013500
X048430Y013560
X046980Y010250
X047780Y010250
X047380Y010250
X046980Y007000
X047780Y007000
X047380Y007000
X048430Y010310
X048430Y007060
X034140Y029630
X033500Y028250
X032700Y028250
X034250Y028100
X031500Y028050
X033100Y028250
X034380Y026860
X034140Y026380
X033500Y025000
X032700Y025000
X031500Y024800
X033100Y025000
X035500Y026400
X035900Y026400
X036300Y026400
X036700Y026400
X037840Y026920
X037840Y023670
X034250Y024850
X034380Y023610
X034140Y023130
X035500Y023150
X035900Y023150
X036300Y023150
X036700Y023150
X037840Y020420
X033500Y021750
X032700Y021750
X034250Y021600
X031500Y021550
X033100Y021750
X034380Y020360
X034140Y019880
X033500Y018500
X032700Y018500
X033100Y018500
X031500Y018300
X035500Y019900
X035900Y019900
X036300Y019900
X036700Y019900
X037840Y017170
X034250Y018350
X034380Y017110
X034140Y016630
X035500Y016650
X035900Y016650
X036300Y016650
X036700Y016650
X037840Y013920
X033500Y015250
X032700Y015250
X034250Y015100
X031500Y015050
X033100Y015250
X034380Y013860
X034140Y013380
X033500Y012000
X032700Y012000
X033100Y012000
X031500Y011800
X035500Y013400
X035900Y013400
X036300Y013400
X036700Y013400
X037840Y010670
X034250Y011850
X034380Y010610
X034140Y010130
X034380Y007360
X034140Y006880
X035500Y010150
X035900Y010150
X036300Y010150
X036700Y010150
X033500Y008750
X032700Y008750
X034250Y008600
X031500Y008550
X033100Y008750
X035500Y006900
X035900Y006900
X036300Y006900
X036700Y006900
X037840Y007420
X013700Y044350
X013040Y044130
X013550Y043580
X013450Y043950
X014100Y044350
X014500Y044350
X013100Y042650
X012700Y042650
X012300Y042650
X015950Y045100
X015950Y048350
X013700Y047600
X014100Y047600
X014500Y047600
X013040Y047380
X013450Y047200
X013550Y046830
X013100Y045900
X012700Y045900
X012300Y045900
X016850Y045880
X016650Y046280
X016850Y049130
X016650Y049530
X013700Y050850
X014100Y050850
X014500Y050850
X013040Y050630
X013550Y050080
X013450Y050450
X013100Y049150
X013100Y052400
X012700Y052400
X012300Y052400
X012700Y049150
X012300Y049150
X020050Y045100
X020050Y051600
X020050Y054850
X018050Y046950
X017650Y046950
X019250Y046950
X018450Y046950
X018850Y046950
X019650Y046950
X018750Y046280
X020950Y046850
X021300Y046850
X021650Y046850
X020450Y046950
X020950Y050100
X021300Y050100
X021650Y050100
X019250Y050200
X020450Y050200
X019650Y050200
X018550Y045880
X018550Y049130
X018050Y050200
X018750Y049530
X017650Y050200
X018450Y050200
X018850Y050200
X018550Y052380
X018050Y053450
X018750Y052780
X017650Y053450
X019250Y053450
X018450Y053450
X020050Y048350
X021300Y056600
X021650Y056600
X018850Y053450
X025600Y047100
X026000Y047100
X026400Y047100
X026800Y047100
X026000Y050350
X026400Y050350
X026800Y050350
X020950Y053350
X021300Y053350
X021650Y053350
X020450Y053450
X019650Y053450
X020950Y056600
X020050Y058100
X019650Y056700
X025600Y050350
X026800Y053600
X025600Y053600
X026000Y053600
X026400Y053600
X025600Y056850
X026000Y056850
X026400Y056850
X026800Y056850
X025600Y060100
X026800Y063350
X026000Y060100
X026400Y060100
X026800Y060100
X025600Y063350
X026000Y063350
X026400Y063350
X025600Y066600
X026000Y066600
X026400Y066600
X026800Y066600
X025600Y069850
X026000Y069850
X026400Y069850
X026800Y069850
X020450Y056700
X018550Y055630
X018750Y056030
X018050Y056700
X017650Y056700
X019250Y056700
X018450Y056700
X018850Y056700
X020950Y059850
X021300Y059850
X021650Y059850
X020450Y059950
X018550Y058880
X018050Y059950
X018750Y059280
X017650Y059950
X018450Y059950
X018850Y059950
X019250Y059950
X020050Y061350
X019650Y059950
X018550Y062130
X018050Y063200
X018750Y062530
X017650Y063200
X018450Y063200
X021300Y063100
X020950Y063100
X019250Y063200
X020450Y063200
X019650Y063200
X018850Y063200
X021650Y063100
X020050Y064600
X020950Y066350
X021300Y066350
X021650Y066350
X020450Y066450
X020050Y067850
X019650Y066450
X018550Y065380
X018750Y065780
X018050Y066450
X017650Y066450
X019250Y066450
X018450Y066450
X018850Y066450
X020950Y069600
X021300Y069600
X021650Y069600
X018550Y068630
X018050Y069700
X018750Y069030
X017650Y069700
X018450Y069700
X018850Y069700
X019250Y069700
X019650Y069700
X020450Y069700
X020050Y071100
X015950Y051600
X016850Y052380
X016650Y052780
X015950Y054850
X016850Y055630
X016650Y056030
X013700Y054100
X014100Y054100
X014500Y054100
X013040Y053880
X013550Y053330
X013450Y053700
X013700Y057350
X013550Y056580
X013450Y056950
X014500Y057350
X015950Y058100
X013040Y057130
X013100Y055650
X012700Y055650
X012300Y055650
X013100Y058900
X012700Y058900
X012300Y058900
X016850Y058880
X016650Y059280
X014100Y057350
X014100Y060600
X014500Y060600
X013700Y060600
X013040Y060380
X013550Y059830
X013450Y060200
X015950Y061350
X012300Y062150
X013700Y063850
X013040Y063630
X013550Y063080
X013450Y063450
X013100Y062150
X016850Y062130
X016650Y062530
X012700Y062150
X014100Y063850
X014500Y063850
X013700Y067100
X014100Y067100
X014500Y067100
X013040Y066880
X013100Y065400
X012700Y065400
X012300Y065400
X013550Y066330
X013450Y066700
X015950Y064600
X016850Y065380
X016650Y065780
X015950Y067850
X015950Y071100
X013700Y070350
X014100Y070350
X014500Y070350
X013040Y070130
X013450Y069950
X013550Y069580
X013100Y068650
X012700Y068650
X012300Y068650
X016850Y068630
X016650Y069030
X043100Y040600
X043500Y040600
X043900Y040600
X044300Y040600
X043100Y043850
X043500Y043850
X043900Y043850
X044300Y043850
X037550Y045100
X038450Y046850
X038800Y046850
X039150Y046850
X037950Y046950
X036050Y045880
X036250Y046280
X035550Y046950
X035150Y046950
X036750Y046950
X035950Y046950
X036350Y046950
X037150Y046950
X043100Y047100
X044300Y050350
X043500Y047100
X043900Y047100
X044300Y047100
X043100Y050350
X043500Y050350
X043900Y050350
X044300Y053600
X043100Y053600
X043500Y053600
X043900Y053600
X043100Y056850
X043500Y056850
X043900Y056850
X044300Y056850
X043100Y060100
X044300Y063350
X043500Y060100
X043900Y060100
X044300Y060100
X043100Y063350
X043500Y063350
X043900Y063350
X043100Y066600
X043500Y066600
X043900Y066600
X044300Y066600
X043100Y069850
X043500Y069850
X043900Y069850
X044300Y069850
X031200Y047600
X031600Y047600
X032000Y047600
X030540Y047380
X031050Y046830
X030950Y047200
X030600Y049150
X030200Y049150
X029800Y049150
X031200Y050850
X031600Y050850
X032000Y050850
X030540Y050630
X031050Y050080
X030950Y050450
X033450Y051600
X033450Y054850
X030600Y052400
X030200Y052400
X029800Y052400
X031200Y054100
X031600Y054100
X032000Y054100
X030540Y053880
X031050Y053330
X030950Y053700
X030600Y055650
X030200Y055650
X029800Y055650
X034350Y042630
X034150Y043030
X034350Y045880
X034150Y046280
X034350Y049130
X034150Y049530
X035950Y043700
X036350Y043700
X037150Y043700
X037550Y048350
X038450Y050100
X037550Y051600
X038450Y053350
X038800Y053350
X038800Y050100
X036750Y050200
X037950Y050200
X037150Y050200
X039150Y050100
X039150Y053350
X037950Y053450
X037150Y053450
X036050Y049130
X035550Y050200
X036250Y049530
X035150Y050200
X035950Y050200
X036350Y050200
X036050Y052380
X036250Y052780
X034350Y052380
X034150Y052780
X035550Y053450
X035150Y053450
X036750Y053450
X035950Y053450
X036350Y053450
X037550Y054850
X038450Y056600
X038800Y056600
X039150Y056600
X037950Y056700
X037550Y058100
X037150Y056700
X038450Y059850
X038800Y059850
X034350Y055630
X034150Y056030
X036050Y055630
X036250Y056030
X035550Y056700
X035150Y056700
X036750Y056700
X035950Y056700
X036350Y056700
X031200Y057350
X031600Y057350
X032000Y057350
X030540Y057130
X031050Y056580
X030950Y056950
X033450Y058100
X033450Y061350
X030600Y058900
X030200Y058900
X029800Y058900
X031200Y060600
X031600Y060600
X032000Y060600
X030540Y060380
X031050Y059830
X030950Y060200
X030600Y062150
X030200Y062150
X029800Y062150
X031200Y063850
X031600Y063850
X032000Y063850
X030540Y063630
X031050Y063080
X030950Y063450
X033450Y064600
X033450Y067850
X030600Y065400
X030200Y065400
X029800Y065400
X031200Y067100
X031600Y067100
X032000Y067100
X030540Y066880
X031050Y066330
X030950Y066700
X031200Y070350
X031600Y070350
X032000Y070350
X030540Y070130
X031050Y069580
X030950Y069950
X030600Y068650
X030200Y068650
X029800Y068650
X033450Y071100
X034350Y058880
X034150Y059280
X034350Y062130
X034150Y062530
X036050Y058880
X036250Y059280
X035550Y059950
X035150Y059950
X036750Y059950
X035950Y059950
X036350Y059950
X036050Y062130
X036250Y062530
X039150Y059850
X037950Y059950
X037550Y061350
X037150Y059950
X037550Y064600
X037150Y063200
X038450Y063100
X038800Y063100
X039150Y063100
X037950Y063200
X035550Y063200
X035150Y063200
X036750Y063200
X035950Y063200
X036350Y063200
X034350Y065380
X034150Y065780
X036050Y065380
X036250Y065780
X035550Y066450
X035150Y066450
X036750Y066450
X035950Y066450
X036350Y066450
X036050Y068630
X036250Y069030
X034350Y068630
X034150Y069030
X035550Y069700
X035150Y069700
X036750Y069700
X035950Y069700
X036350Y069700
X038450Y066350
X038800Y066350
X039150Y066350
X037950Y066450
X037150Y066450
X037550Y067850
X038450Y069600
X038800Y069600
X039150Y069600
X037950Y069700
X037550Y071100
X037150Y069700
X046980Y036250
X047380Y036250
X047780Y036250
X048430Y036310
X048100Y039400
X047700Y039400
X047300Y039400
X051000Y038000
X050200Y038000
X051750Y037850
X049000Y037800
X050600Y038000
X051880Y036610
X053550Y039380
X053750Y039780
X051850Y039380
X051650Y039780
X053000Y036150
X053400Y036150
X053800Y036150
X054200Y036150
X055340Y036670
X053050Y040450
X052650Y040450
X054250Y040450
X053450Y040450
X053850Y040450
X054650Y040450
X051850Y042630
X051650Y043030
X048700Y041100
X048040Y040880
X048550Y040330
X048450Y040700
X049100Y041100
X049500Y041100
X050950Y041850
X048700Y044350
X049100Y044350
X049500Y044350
X048040Y044130
X048550Y043580
X048450Y043950
X048100Y042650
X047700Y042650
X047300Y042650
X050950Y045100
X053550Y042630
X053550Y045880
X053050Y046950
X053750Y046280
X053450Y046950
X053050Y043700
X052650Y043700
X054250Y043700
X053450Y043700
X053850Y043700
X053750Y043030
X054650Y043700
X055950Y043600
X056300Y043600
X056650Y043600
X055450Y043700
X055050Y045100
X055950Y046850
X056300Y046850
X056650Y046850
X051850Y045880
X051650Y046280
X052650Y046950
X055450Y046950
X054250Y046950
X053850Y046950
X054650Y046950
X055050Y048350
X048700Y047600
X049100Y047600
X049500Y047600
X048040Y047380
X048550Y046830
X048450Y047200
X048100Y045900
X048100Y049150
X047700Y049150
X047300Y049150
X047700Y045900
X047300Y045900
X055950Y050100
X056300Y050100
X056650Y050100
X055450Y050200
X053550Y049130
X053050Y050200
X053750Y049530
X054250Y050200
X053450Y050200
X053850Y050200
X054650Y050200
X050950Y048350
X051850Y049130
X051650Y049530
X050950Y051600
X051850Y052380
X051650Y052780
X048700Y050850
X049100Y050850
X049500Y050850
X048040Y050630
X048550Y050080
X048450Y050450
X055950Y040350
X056300Y040350
X056650Y040350
X055450Y040450
X055050Y041850
X060600Y040600
X061000Y040600
X061400Y040600
X061800Y040600
X060600Y043850
X061000Y043850
X061400Y043850
X061800Y043850
X061000Y047100
X061400Y047100
X061800Y047100
X060600Y047100
X061800Y050350
X060600Y050350
X061000Y050350
X061400Y050350
X060600Y053600
X061000Y053600
X061400Y053600
X061800Y053600
X060600Y056850
X061800Y060100
X061000Y056850
X061400Y056850
X061800Y056850
X060600Y060100
X061000Y060100
X061400Y060100
X060600Y063350
X061000Y063350
X061400Y063350
X061800Y063350
X060600Y066600
X061000Y066600
X061400Y066600
X061800Y066600
X060600Y069850
X061000Y069850
X061400Y069850
X061800Y069850
X052650Y050200
X053050Y053450
X052650Y053450
X055050Y051600
X055950Y053350
X056300Y053350
X056650Y053350
X053550Y052380
X053750Y052780
X054250Y053450
X053850Y053450
X055450Y053450
X054650Y053450
X053450Y053450
X048700Y054100
X048550Y053330
X048450Y053700
X049500Y054100
X050950Y054850
X048040Y053880
X048100Y052400
X047700Y052400
X047300Y052400
X048100Y055650
X047700Y055650
X047300Y055650
X051850Y055630
X051650Y056030
X055050Y054850
X055950Y056600
X056300Y056600
X056650Y056600
X055450Y056700
X055050Y058100
X053550Y055630
X053750Y056030
X053050Y056700
X052650Y056700
X054250Y056700
X053450Y056700
X053850Y056700
X054650Y056700
X049100Y054100
X049100Y057350
X049500Y057350
X049100Y060600
X049500Y060600
X048700Y057350
X048040Y057130
X048550Y056580
X048450Y056950
X050950Y058100
X048100Y058900
X047700Y058900
X053550Y058880
X053750Y059280
X051850Y058880
X051650Y059280
X053050Y059950
X052650Y059950
X054250Y059950
X053450Y059950
X053850Y059950
X054650Y059950
X048700Y060600
X048040Y060380
X048550Y059830
X048450Y060200
X050950Y061350
X047300Y058900
X048700Y063850
X049100Y063850
X049500Y063850
X048040Y063630
X048550Y063080
X048450Y063450
X048100Y062150
X048100Y065400
X047700Y065400
X047300Y065400
X047700Y062150
X047300Y062150
X055950Y059850
X056300Y059850
X056650Y059850
X055450Y059950
X055050Y061350
X055950Y063100
X056300Y063100
X056650Y063100
X053550Y062130
X053750Y062530
X055450Y063200
X055050Y064600
X056650Y066350
X055950Y066350
X056300Y066350
X054250Y066450
X055450Y066450
X055050Y067850
X053550Y068630
X053050Y069700
X052650Y069700
X054250Y069700
X053450Y069700
X053850Y069700
X054650Y069700
X053750Y069030
X055950Y069600
X056300Y069600
X056650Y069600
X055450Y069700
X055050Y071100
X051850Y062130
X051650Y062530
X051850Y065380
X051650Y065780
X053050Y063200
X052650Y063200
X054250Y063200
X053450Y063200
X053850Y063200
X054650Y063200
X053550Y065380
X053050Y066450
X052650Y066450
X053750Y065780
X053450Y066450
X053850Y066450
X054650Y066450
X050950Y064600
X050950Y067850
X051850Y068630
X051650Y069030
X048700Y067100
X049100Y067100
X049500Y067100
X048040Y066880
X048550Y066330
X048450Y066700
X048700Y070350
X048550Y069580
X048450Y069950
X049100Y070350
X049500Y070350
X050950Y071100
X048040Y070130
X048100Y068650
X047700Y068650
X047300Y068650
X071250Y039780
X071750Y040450
X071350Y040450
X073450Y040350
X073800Y040350
X074150Y040350
X072950Y040450
X072150Y040450
X078100Y040600
X078500Y040600
X078900Y040600
X079300Y040600
X078100Y043850
X078500Y043850
X078900Y043850
X079300Y043850
X069150Y039780
X068450Y041850
X068450Y045100
X071050Y042630
X071250Y043030
X069350Y042630
X069150Y043030
X070550Y043700
X070150Y043700
X070950Y043700
X071350Y043700
X072550Y041850
X074150Y043600
X073450Y043600
X073800Y043600
X071750Y043700
X072950Y043700
X072150Y043700
X072550Y045100
X073450Y046850
X072950Y046950
X072550Y048350
X073800Y046850
X074150Y046850
X071750Y046950
X072150Y046950
X078100Y047100
X078100Y050350
X078500Y050350
X078900Y050350
X079300Y050350
X078500Y047100
X078900Y047100
X079300Y047100
X078100Y053600
X078500Y053600
X078900Y053600
X079300Y053600
X078100Y056850
X078500Y056850
X078900Y056850
X079300Y056850
X078100Y060100
X078500Y060100
X078900Y060100
X079300Y060100
X078100Y063350
X078500Y063350
X078900Y063350
X079300Y063350
X066200Y044350
X066600Y044350
X067000Y044350
X066050Y043580
X065950Y043950
X065600Y045900
X065200Y045900
X064800Y045900
X071050Y045880
X070550Y046950
X071250Y046280
X070150Y046950
X070950Y046950
X071350Y046950
X069350Y045880
X066200Y047600
X066600Y047600
X065540Y047380
X066050Y046830
X065950Y047200
X067000Y047600
X066050Y050080
X065600Y049150
X065200Y049150
X064800Y049150
X069150Y046280
X068450Y048350
X070950Y050200
X071050Y049130
X069350Y049130
X069150Y049530
X070550Y050200
X070150Y050200
X071750Y050200
X071250Y049530
X073450Y050100
X073800Y050100
X074150Y050100
X072950Y050200
X066200Y050850
X066600Y050850
X067000Y050850
X065540Y050630
X065950Y050450
X066200Y054100
X066600Y054100
X067000Y054100
X065540Y053880
X066050Y053330
X065950Y053700
X065600Y052400
X065600Y055650
X065200Y055650
X064800Y055650
X065200Y052400
X064800Y052400
X071050Y052380
X071250Y052780
X070550Y053450
X070150Y053450
X071750Y053450
X070950Y053450
X071350Y053450
X072150Y053450
X068450Y051600
X069350Y052380
X069150Y052780
X068450Y054850
X069350Y055630
X072550Y051600
X073450Y053350
X073800Y053350
X074150Y053350
X072950Y053450
X071350Y050200
X072150Y050200
X072550Y054850
X073450Y056600
X073800Y056600
X074150Y056600
X072950Y056700
X071350Y056700
X072150Y056700
X069150Y056030
X068450Y058100
X070150Y056700
X071050Y055630
X070550Y056700
X071250Y056030
X070950Y056700
X071050Y058880
X066200Y057350
X066600Y057350
X067000Y057350
X065540Y057130
X066050Y056580
X065950Y056950
X066600Y060600
X065540Y060380
X065600Y058900
X065200Y058900
X064800Y058900
X066050Y059830
X065950Y060200
X071750Y056700
X072550Y058100
X070550Y059950
X070150Y059950
X071750Y059950
X071350Y059950
X071250Y059280
X072150Y059950
X070950Y059950
X071050Y062130
X071250Y062530
X069350Y058880
X069150Y059280
X068450Y061350
X069350Y062130
X069150Y062530
X066200Y060600
X067000Y060600
X066200Y063850
X066600Y063850
X067000Y063850
X065540Y063630
X066050Y063080
X065950Y063450
X065600Y062150
X065540Y066880
X065600Y065400
X065200Y065400
X065200Y062150
X064800Y062150
X064800Y065400
X073450Y059850
X073800Y059850
X074150Y059850
X072950Y059950
X072550Y061350
X074150Y063100
X073450Y063100
X073800Y063100
X071750Y063200
X072950Y063200
X072550Y064600
X072150Y063200
X073450Y066350
X071750Y066450
X072950Y066450
X072550Y067850
X072150Y066450
X073800Y066350
X074150Y066350
X078100Y066600
X078500Y066600
X078900Y066600
X079300Y066600
X070550Y063200
X070950Y063200
X071350Y063200
X068450Y064600
X069350Y065380
X069150Y065780
X070150Y063200
X070150Y066450
X071050Y065380
X070550Y066450
X071250Y065780
X070950Y066450
X071350Y066450
X066200Y067100
X066600Y067100
X067000Y067100
X066050Y066330
X065950Y066700
X066200Y070350
X066600Y070350
X067000Y070350
X065540Y070130
X065600Y068650
X065200Y068650
X064800Y068650
X066050Y069580
X065950Y069950
X071050Y068630
X071250Y069030
X070550Y069700
X070150Y069700
X071750Y069700
X070950Y069700
X071350Y069700
X072150Y069700
X068450Y067850
X069350Y068630
X069150Y069030
X068450Y071100
X073450Y069600
X072950Y069700
X072550Y071100
X073800Y069600
X074150Y069600
X078100Y069850
X078500Y069850
X078900Y069850
X079300Y069850
X051000Y034750
X050600Y034750
X051000Y031500
X050200Y031500
X049000Y031300
X050600Y031500
X050200Y034750
X049000Y034550
X051750Y034600
X051880Y033360
X051640Y032880
X051750Y031350
X051880Y030110
X051640Y029630
X053000Y032900
X053400Y032900
X053800Y032900
X054200Y032900
X055340Y033420
X061000Y032900
X061400Y032900
X061000Y029650
X061400Y029650
X053000Y029650
X053400Y029650
X053800Y029650
X054200Y029650
X055340Y030170
X051000Y028250
X050600Y028250
X050200Y028250
X049000Y028050
X051750Y028100
X051880Y026860
X051640Y026380
X053000Y026400
X053400Y026400
X053800Y026400
X054200Y026400
X055340Y026920
X061000Y026400
X061400Y026400
X051000Y025000
X050600Y025000
X051000Y021750
X050200Y021750
X049000Y021550
X050600Y021750
X050200Y025000
X049000Y024800
X051750Y024850
X051880Y023610
X051640Y023130
X051750Y021600
X051880Y020360
X051640Y019880
X053000Y023150
X053400Y023150
X053800Y023150
X054200Y023150
X055340Y023670
X061000Y023150
X061400Y023150
X061000Y019900
X061400Y019900
X053000Y019900
X053400Y019900
X053800Y019900
X054200Y019900
X055340Y020420
X051000Y018500
X050600Y018500
X050200Y018500
X049000Y018300
X051750Y018350
X051880Y017110
X051640Y016630
X053000Y016650
X053400Y016650
X053800Y016650
X054200Y016650
X055340Y017170
X061000Y016650
X061400Y016650
X051000Y015250
X050600Y015250
X051000Y012000
X050200Y012000
X049000Y011800
X050600Y012000
X050200Y015250
X049000Y015050
X051750Y015100
X051880Y013860
X051640Y013380
X051750Y011850
X051880Y010610
X051640Y010130
X053000Y013400
X053400Y013400
X053800Y013400
X054200Y013400
X055340Y013920
X061000Y013400
X061400Y013400
X061000Y010150
X061400Y010150
X053000Y010150
X053400Y010150
X053800Y010150
X054200Y010150
X055340Y010670
X051000Y008750
X050600Y008750
X050200Y008750
X049000Y008550
X051750Y008600
X051880Y007360
X051640Y006880
X053000Y006900
X053400Y006900
X053800Y006900
X054200Y006900
X055340Y007420
X061000Y006900
X061400Y006900
X051640Y036130
X061000Y036150
X061400Y036150
X064480Y036250
X065280Y036250
X064880Y036250
X065930Y036310
X066500Y037800
X065200Y039400
X072840Y026920
X072840Y023670
X078500Y026400
X078900Y026400
X078500Y023150
X078900Y023150
X078500Y019900
X078900Y019900
X078500Y016650
X078500Y013400
X078900Y013400
X078900Y016650
X078500Y010150
X078900Y010150
X078500Y006900
X078900Y006900
X068500Y028250
X069250Y028100
X067700Y028250
X068100Y028250
X069380Y026860
X069140Y026380
X070500Y026400
X070900Y026400
X071300Y026400
X064480Y033000
X064480Y029750
X065280Y029750
X064880Y029750
X065930Y029810
X066500Y031300
X065280Y033000
X065930Y033060
X066500Y034550
X064880Y033000
X066500Y028050
X064480Y026500
X065280Y026500
X064880Y026500
X065930Y026560
X064480Y023250
X065280Y023250
X064880Y023250
X065930Y023310
X066500Y024800
X071700Y026400
X068500Y025000
X067700Y025000
X069250Y024850
X068100Y025000
X069380Y023610
X070500Y023150
X070900Y023150
X071300Y023150
X071700Y023150
X069140Y023130
X068500Y021750
X067700Y021750
X069250Y021600
X068100Y021750
X069380Y020360
X069140Y019880
X070500Y019900
X070900Y019900
X071300Y019900
X071700Y019900
X072840Y020420
X064480Y020000
X065280Y020000
X064880Y020000
X065930Y020060
X066500Y021550
X066500Y018300
X064480Y016750
X065280Y016750
X064880Y016750
X065930Y016810
X068500Y018500
X067700Y018500
X069250Y018350
X068100Y018500
X069380Y017110
X069140Y016630
X068500Y015250
X067700Y015250
X069250Y015100
X068100Y015250
X070500Y016650
X070900Y016650
X071300Y016650
X071700Y016650
X072840Y017170
X069380Y013860
X069140Y013380
X070500Y013400
X070900Y013400
X071300Y013400
X071700Y013400
X072840Y013920
X064480Y013500
X065280Y013500
X064880Y013500
X065930Y013560
X065930Y010310
X066500Y015050
X066500Y011800
X064480Y010250
X065280Y010250
X064880Y010250
X064480Y007000
X065280Y007000
X064880Y007000
X065930Y007060
X066500Y008550
X068500Y012000
X067700Y012000
X069250Y011850
X068100Y012000
X069380Y010610
X069140Y010130
X068500Y008750
X067700Y008750
X069250Y008600
X068100Y008750
X070500Y010150
X070900Y010150
X071300Y010150
X071700Y010150
X072840Y010670
X069380Y007360
X069140Y006880
X070500Y006900
X070900Y006900
X071300Y006900
X071700Y006900
X072840Y007420
X068500Y038000
X067700Y038000
X068100Y038000
X069250Y037850
X071050Y039380
X070550Y040450
X069350Y039380
X070150Y040450
X070950Y040450
X066200Y041100
X066600Y041100
X067000Y041100
X065540Y040880
X066050Y040330
X065950Y040700
X065600Y039400
X065540Y044130
X065600Y042650
X065200Y042650
X064800Y039400
X064800Y042650
X070900Y036150
X071300Y036150
X071700Y036150
X072840Y036670
X069380Y036610
X069140Y036130
X070500Y036150
X068500Y034750
X068100Y034750
X068500Y031500
X067700Y031500
X068100Y031500
X067700Y034750
X069250Y034600
X069380Y033360
X069140Y032880
X070500Y032900
X070900Y032900
X071300Y032900
X071700Y032900
X072840Y033420
X069250Y031350
X069380Y030110
X069140Y029630
X070500Y029650
X070900Y029650
X071700Y029650
X072840Y030170
X071300Y029650
X078500Y029650
X078900Y029650
X078500Y032900
X078900Y032900
X081980Y033000
X082780Y033000
X082380Y033000
X083430Y033060
X081980Y029750
X082780Y029750
X082380Y029750
X083430Y029810
X078500Y036150
X078900Y036150
X081980Y036250
X082380Y036250
X096000Y036150
X096400Y036150
X082780Y036250
X083430Y036310
X086000Y038000
X085200Y038000
X086750Y037850
X084000Y037800
X085600Y038000
X084000Y034550
X086880Y036610
X086640Y036130
X088000Y036150
X088400Y036150
X088800Y036150
X089200Y036150
X086850Y039380
X083700Y041100
X084100Y041100
X084500Y041100
X083040Y040880
X083550Y040330
X083450Y040700
X083100Y039400
X086650Y039780
X082700Y039400
X082300Y039400
X090340Y036670
X090050Y041850
X088550Y039380
X088050Y040450
X087650Y040450
X088450Y040450
X090950Y040350
X091300Y040350
X091650Y040350
X090450Y040450
X089650Y040450
X088750Y039780
X089250Y040450
X088850Y040450
X090950Y043600
X091300Y043600
X091650Y043600
X087650Y043700
X088550Y042630
X088050Y043700
X088750Y043030
X089250Y043700
X088850Y043700
X090450Y043700
X089650Y043700
X095600Y040600
X096000Y040600
X096400Y040600
X096800Y040600
X095600Y043850
X096000Y043850
X096400Y043850
X096800Y043850
X085950Y041850
X085950Y045100
X083700Y044350
X084100Y044350
X084500Y044350
X083040Y044130
X083450Y043950
X083550Y043580
X083100Y042650
X082700Y042650
X082300Y042650
X086850Y042630
X086650Y043030
X086850Y045880
X086650Y046280
X086850Y049130
X086650Y049530
X086850Y052380
X086850Y055630
X086650Y056030
X086650Y052780
X083700Y047600
X084100Y047600
X084500Y047600
X083040Y047380
X083450Y047200
X083550Y046830
X083100Y045900
X082700Y045900
X082300Y045900
X085950Y048350
X083700Y050850
X084100Y050850
X084500Y050850
X083040Y050630
X083450Y050450
X083550Y050080
X083100Y049150
X082700Y049150
X082300Y049150
X090050Y045100
X088450Y043700
X088550Y045880
X088050Y046950
X087650Y046950
X089250Y046950
X088450Y046950
X088850Y046950
X089650Y046950
X088750Y046280
X090950Y046850
X091300Y046850
X091650Y046850
X090450Y046950
X090050Y048350
X095600Y047100
X096000Y047100
X096400Y047100
X096800Y047100
X088550Y049130
X088750Y049530
X088050Y050200
X087650Y050200
X089250Y050200
X088450Y050200
X088850Y050200
X089650Y050200
X085950Y051600
X083100Y052400
X082700Y052400
X082300Y052400
X083700Y054100
X084100Y054100
X084500Y054100
X083040Y053880
X083550Y053330
X083450Y053700
X085950Y054850
X085950Y058100
X083100Y055650
X082700Y055650
X082300Y055650
X086850Y058880
X086650Y059280
X083700Y057350
X084100Y057350
X084500Y057350
X083040Y057130
X083550Y056580
X083450Y056950
X083100Y058900
X082700Y058900
X082300Y058900
X083700Y060600
X084100Y060600
X084500Y060600
X083040Y060380
X083550Y059830
X083450Y060200
X085950Y061350
X086850Y062130
X086650Y062530
X085950Y064600
X083100Y062150
X086850Y065380
X086650Y065780
X085950Y067850
X086850Y068630
X086650Y069030
X085950Y071100
X083700Y063850
X084100Y063850
X084500Y063850
X083040Y063630
X083550Y063080
X083450Y063450
X082700Y062150
X082300Y062150
X083100Y065400
X082700Y065400
X082300Y065400
X083700Y067100
X084100Y067100
X084500Y067100
X083040Y066880
X083550Y066330
X083450Y066700
X083700Y070350
X084100Y070350
X084500Y070350
X083040Y070130
X083550Y069580
X083450Y069950
X083100Y068650
X082700Y068650
X082300Y068650
X090950Y050100
X091300Y050100
X091650Y050100
X090450Y050200
X090050Y051600
X091650Y053350
X095600Y050350
X096000Y050350
X096400Y050350
X096800Y050350
X090950Y053350
X091300Y053350
X089250Y053450
X090450Y053450
X090050Y054850
X095600Y053600
X095600Y056850
X096000Y056850
X096400Y056850
X096800Y056850
X096000Y053600
X096400Y053600
X096800Y053600
X088550Y052380
X088050Y053450
X088750Y052780
X087650Y053450
X088450Y053450
X088850Y053450
X089650Y053450
X088550Y055630
X088750Y056030
X088050Y056700
X087650Y056700
X089250Y056700
X088450Y056700
X088850Y056700
X090950Y056600
X091300Y056600
X091650Y056600
X090450Y056700
X089650Y056700
X090050Y058100
X090950Y059850
X091300Y059850
X089250Y059950
X090450Y059950
X089650Y059950
X088550Y058880
X088050Y059950
X088750Y059280
X087650Y059950
X088450Y059950
X091650Y059850
X091650Y063100
X088850Y059950
X090050Y061350
X090950Y063100
X091300Y063100
X090450Y063200
X095600Y060100
X096000Y060100
X096400Y060100
X096800Y060100
X095600Y063350
X095600Y069850
X096000Y069850
X096400Y069850
X096800Y069850
X096000Y063350
X096400Y063350
X096800Y063350
X095600Y066600
X096000Y066600
X096400Y066600
X096800Y066600
X088550Y062130
X088750Y062530
X088050Y063200
X087650Y063200
X089250Y063200
X088450Y063200
X088850Y063200
X089650Y063200
X088550Y065380
X088050Y066450
X088750Y065780
X090050Y064600
X090950Y066350
X091300Y066350
X090450Y066450
X091650Y066350
X087650Y066450
X089250Y066450
X088450Y066450
X088850Y066450
X089650Y066450
X088550Y068630
X088050Y069700
X088750Y069030
X088450Y069700
X088850Y069700
X090050Y067850
X090950Y069600
X091300Y069600
X091650Y069600
X087650Y069700
X089250Y069700
X089650Y069700
X090450Y069700
X090050Y071100
X086000Y034750
X085600Y034750
X085200Y034750
X086750Y034600
X086880Y033360
X086640Y032880
X088000Y032900
X088400Y032900
X088800Y032900
X089200Y032900
X090340Y033420
X096000Y032900
X096400Y032900
X086000Y031500
X085600Y031500
X085200Y031500
X084000Y031300
X086750Y031350
X086880Y030110
X086640Y029630
X088000Y029650
X088400Y029650
X088800Y029650
X089200Y029650
X090340Y030170
X096000Y029650
X096400Y029650
X086880Y026860
X090340Y026920
X086640Y026380
X088000Y026400
X088400Y026400
X088800Y026400
X089200Y026400
X096000Y026400
X096400Y026400
X081980Y026500
X082780Y026500
X083430Y026560
X082380Y026500
X086000Y028250
X085200Y028250
X086750Y028100
X084000Y028050
X085600Y028250
X082780Y023250
X083430Y023310
X086000Y025000
X085200Y025000
X086750Y024850
X084000Y024800
X085600Y025000
X081980Y023250
X082380Y023250
X086000Y021750
X086750Y021600
X085600Y021750
X085200Y021750
X084000Y021550
X081980Y020000
X081980Y016750
X082780Y016750
X082380Y016750
X083430Y016810
X082780Y020000
X083430Y020060
X082380Y020000
X081980Y013500
X082780Y013500
X082380Y013500
X083430Y013560
X081980Y010250
X082780Y010250
X082380Y010250
X081980Y007000
X082780Y007000
X082380Y007000
X083430Y010310
X083430Y007060
X086880Y013860
X086640Y013380
X086000Y012000
X085200Y012000
X086750Y011850
X084000Y011800
X085600Y012000
X088000Y013400
X088400Y013400
X088800Y013400
X089200Y013400
X086880Y010610
X086640Y010130
X088000Y010150
X088400Y010150
X088800Y010150
X089200Y010150
X090340Y010670
X086000Y008750
X085200Y008750
X086750Y008600
X084000Y008550
X085600Y008750
X086880Y007360
X086640Y006880
X088000Y006900
X088400Y006900
X088800Y006900
X089200Y006900
X090340Y007420
X086880Y023610
X090340Y023670
X086640Y023130
X088000Y023150
X088400Y023150
X088800Y023150
X089200Y023150
X096000Y023150
X096400Y023150
X086880Y020360
X086640Y019880
X088000Y019900
X088400Y019900
X088800Y019900
X096000Y019900
X096400Y019900
X089200Y019900
X090340Y020420
X086880Y017110
X086640Y016630
X088000Y016650
X088400Y016650
X088800Y016650
X089200Y016650
X090340Y017170
X096000Y016650
X096400Y016650
X096000Y013400
X096000Y010150
X096400Y010150
X096000Y006900
X096400Y006900
X096400Y013400
X086000Y018500
X085200Y018500
X086750Y018350
X085600Y018500
X084000Y018300
X084000Y015050
X086000Y015250
X085200Y015250
X086750Y015100
X085600Y015250
X090340Y013920
M30
